<?xml version='1.0' encoding='utf-8'?>
<mxfile host="app.diagrams.net"><diagram name="DBA to DPA Roadmap"><mxGraphModel><root><mxCell id="0" /><mxCell id="1" parent="0" /><mxCell id="n1" value="Start: Traditional DBA&#10;(SQL, backups, performance tuning)" style="rounded=1;whiteSpace=wrap;html=1;fillColor=#dae8fc;strokeColor=#6c8ebf;" vertex="1" parent="1"><mxGeometry x="80" y="40" width="200" height="60" as="geometry" /></mxCell><mxCell id="n2" value="Learn Cloud DB Services&#10;AWS RDS, Aurora, DynamoDB&#10;Azure SQL, CosmosDB&#10;GCP Cloud SQL, BigQuery" style="rounded=1;whiteSpace=wrap;html=1;fillColor=#dae8fc;strokeColor=#6c8ebf;" vertex="1" parent="1"><mxGeometry x="400" y="40" width="200" height="60" as="geometry" /></mxCell><mxCell id="n3" value="Learn Infrastructure as Code&#10;Terraform, Pulumi" style="rounded=1;whiteSpace=wrap;html=1;fillColor=#dae8fc;strokeColor=#6c8ebf;" vertex="1" parent="1"><mxGeometry x="400" y="140" width="200" height="60" as="geometry" /></mxCell><mxCell id="n4" value="Data Pipeline Orchestration&#10;Airflow, Kafka" style="rounded=1;whiteSpace=wrap;html=1;fillColor=#dae8fc;strokeColor=#6c8ebf;" vertex="1" parent="1"><mxGeometry x="400" y="240" width="200" height="60" as="geometry" /></mxCell><mxCell id="n5" value="Security &amp; Compliance&#10;Encryption, Data Masking, GDPR, HIPAA" style="rounded=1;whiteSpace=wrap;html=1;fillColor=#dae8fc;strokeColor=#6c8ebf;" vertex="1" parent="1"><mxGeometry x="400" y="340" width="200" height="60" as="geometry" /></mxCell><mxCell id="n6" value="Scripting Skills&#10;Python, Bash, PowerShell" style="rounded=1;whiteSpace=wrap;html=1;fillColor=#dae8fc;strokeColor=#6c8ebf;" vertex="1" parent="1"><mxGeometry x="400" y="440" width="200" height="60" as="geometry" /></mxCell><mxCell id="n7" value="Data Modeling&#10;OLTP &amp; OLAP" style="rounded=1;whiteSpace=wrap;html=1;fillColor=#dae8fc;strokeColor=#6c8ebf;" vertex="1" parent="1"><mxGeometry x="400" y="540" width="200" height="60" as="geometry" /></mxCell><mxCell id="n8" value="DevOps Collaboration&#10;CI/CD, GitOps, DB Change Automation" style="rounded=1;whiteSpace=wrap;html=1;fillColor=#dae8fc;strokeColor=#6c8ebf;" vertex="1" parent="1"><mxGeometry x="400" y="640" width="200" height="60" as="geometry" /></mxCell><mxCell id="n9" value="End Goal: Data Platform Architect&#10;Multi-cloud, AI-driven optimization,&#10;Data as a Product" style="rounded=1;whiteSpace=wrap;html=1;fillColor=#d5e8d4;strokeColor=#82b366;" vertex="1" parent="1"><mxGeometry x="720" y="340" width="200" height="60" as="geometry" /></mxCell><mxCell id="e1" style="endArrow=block;html=1;strokeColor=#000000;" edge="1" parent="1" source="n1" target="n2"><mxGeometry as="geometry" /></mxCell><mxCell id="e2" style="endArrow=block;html=1;strokeColor=#000000;" edge="1" parent="1" source="n2" target="n3"><mxGeometry as="geometry" /></mxCell><mxCell id="e3" style="endArrow=block;html=1;strokeColor=#000000;" edge="1" parent="1" source="n3" target="n4"><mxGeometry as="geometry" /></mxCell><mxCell id="e4" style="endArrow=block;html=1;strokeColor=#000000;" edge="1" parent="1" source="n4" target="n5"><mxGeometry as="geometry" /></mxCell><mxCell id="e5" style="endArrow=block;html=1;strokeColor=#000000;" edge="1" parent="1" source="n5" target="n6"><mxGeometry as="geometry" /></mxCell><mxCell id="e6" style="endArrow=block;html=1;strokeColor=#000000;" edge="1" parent="1" source="n6" target="n7"><mxGeometry as="geometry" /></mxCell><mxCell id="e7" style="endArrow=block;html=1;strokeColor=#000000;" edge="1" parent="1" source="n7" target="n8"><mxGeometry as="geometry" /></mxCell><mxCell id="e8" style="endArrow=block;html=1;strokeColor=#000000;" edge="1" parent="1" source="n8" target="n9"><mxGeometry as="geometry" /></mxCell></root></mxGraphModel></diagram></mxfile>